<svg width="64" height="64" xmlns="http://www.w3.org/2000/svg">
    <defs>
        <linearGradient y2="0.45823" x2="-0.00002" y1="0.46566" x1="1.11254" id="lin1">
            <stop stop-opacity="0" stop-color="#0C4D94" offset="0.06731"/>
            <stop stop-color="#0C4D94" offset="1"/>
        </linearGradient>
        <linearGradient y2="0.48932" x2="0.96438" y1="0.48926" x1="0.04664" id="svg_6">
            <stop stop-color="#0C4D94" offset="0.24519"/>
            <stop stop-opacity="0.7" stop-color="#0C4D94" offset="0.35096"/>
            <stop stop-opacity="0" stop-color="#0C4D94" offset="0.70192"/>
            <stop stop-opacity="0" stop-color="#0C4D94" offset="1"/>
        </linearGradient>
    </defs>
    <path fill="url(#lin1)" d="m3.97215,31.8125c0,0.0216 -0.01749,0.0391 -0.03906,0.0391l0,0c-2.02311,0 -3.66397,-1.64 -3.66406,-3.6631l0,-0.1456c0,-0.2529 0.20501,-0.4579 0.4579,-0.4579l2.78731,0c0.2529,0 0.45791,0.205 0.45791,0.4579l0,3.7696zm4.23535,-4.2275c0.25282,0 0.458,0.2051 0.45801,0.458l0,3.3506c0,0.2528 -0.20518,0.4579 -0.45801,0.458l-3.2334,0c-0.25289,0 -0.458,-0.2051 -0.458,-0.458l0,-3.3506c0.00001,-0.2529 0.20512,-0.458 0.458,-0.458l3.2334,0zm5.12306,0.0712c0.2528,0.0001 0.458,0.2052 0.458,0.4581l0,3.2793c0,0.2528 -0.2052,0.4579 -0.458,0.458l-3.3057,0c-0.2529,0 -0.458,-0.2051 -0.458,-0.458l0,-3.2793c0,-0.2529 0.2051,-0.4581 0.458,-0.4581l3.3057,0zm4.7568,-0.0712c0.2528,0 0.458,0.2051 0.458,0.458l0,3.3506c0,0.2528 -0.2051,0.4579 -0.458,0.458l-3.2812,0c-0.2527,-0.0002 -0.4571,-0.2053 -0.4571,-0.458l0,-3.3506c0.0001,-0.2528 0.2044,-0.4578 0.4571,-0.458l3.2812,0zm4.9405,0c0.2527,0.0002 0.458,0.2052 0.458,0.458l0,3.3506c0,0.2527 -0.2053,0.4578 -0.458,0.458l-3.2725,0c-0.2529,0 -0.458,-0.2051 -0.458,-0.458l0,-3.3506c0,-0.2529 0.2051,-0.458 0.458,-0.458l3.2725,0zm4.6074,-2.087c0.2528,0.0001 0.458,0.2052 0.458,0.4581l0,2.8418c-0.0001,0.2527 -0.2052,0.4579 -0.458,0.458l-2.7862,0c-0.2528,0 -0.4579,-0.2052 -0.458,-0.458l0,-2.8418c0,-0.2529 0.2051,-0.4581 0.458,-0.4581l2.7862,0zm4.1758,-1.7402c0.2529,0 0.458,0.2051 0.458,0.458l0,2.6553c0,0.2529 -0.2052,0.458 -0.458,0.458l-2.7862,0c-0.2529,0 -0.458,-0.2051 -0.458,-0.458l0,-2.6553c0,-0.2529 0.2051,-0.458 0.458,-0.458l2.7862,0zm-18.2061,2.2462c0,0.2529 -0.205,0.4579 -0.4579,0.4579l-2.7863,0c-0.2529,0 -0.4579,-0.205 -0.4579,-0.4579l0,-3.3508c0,-0.2529 0.205,-0.4579 0.4579,-0.4579l2.7863,0c0.2529,0 0.4579,0.205 0.4579,0.4579l0,3.3508zm4.9404,0c0,0.2529 -0.205,0.4579 -0.4579,0.4579l-2.7863,0c-0.2529,0 -0.4579,-0.205 -0.4579,-0.4579l0,-3.3508c0,-0.2529 0.205,-0.4579 0.4579,-0.4579l2.7863,0c0.2529,0 0.4579,0.205 0.4579,0.4579l0,3.3508zm4.4815,-3.8087c0.2529,0 0.458,0.2051 0.458,0.458l0,3.3506c0,0.2529 -0.2051,0.458 -0.458,0.458l-2.7862,0c-0.2528,-0.0001 -0.458,-0.2052 -0.458,-0.458l0,-3.3506c0,-0.2528 0.2052,-0.4579 0.458,-0.458l2.7862,0zm-14.81936,-0.1172c0.25287,0.0001 0.45801,0.2052 0.45801,0.458l0,3.3506c-0.00001,0.2529 -0.20514,0.458 -0.45801,0.458l-2.78613,0c-0.25289,0 -0.458,-0.2051 -0.45801,-0.458l0,-3.3506c0,-0.2529 0.20511,-0.458 0.45801,-0.458l2.78613,0zm-4.23633,3.7697c0,0.2529 -0.20501,0.4579 -0.4579,0.4579l-2.78634,0c-0.25289,0 -0.4579,-0.205 -0.4579,-0.4579l0,-3.3508c0,-0.2529 0.20501,-0.4579 0.4579,-0.4579l2.78634,0c0.25289,0 0.4579,0.205 0.4579,0.4579l0,3.3508zm23.50389,-5.9806c0.2529,0 0.458,0.2051 0.458,0.458l0,2.8105c0,0.2529 -0.2051,0.458 -0.458,0.4581l-2.7861,0c-0.2529,0 -0.458,-0.2052 -0.458,-0.4581l0,-2.8105c0,-0.2529 0.2051,-0.458 0.458,-0.458l2.7861,0zm-13.8701,0.6368c0,0.2529 -0.205,0.4579 -0.4579,0.4579l-2.7863,0c-0.2529,0 -0.4579,-0.205 -0.4579,-0.4579l0,-3.3508c0,-0.2529 0.205,-0.4579 0.4579,-0.4579l2.7863,0c0.2529,0 0.4579,0.205 0.4579,0.4579l0,3.3508zm4.9404,0c0,0.2529 -0.205,0.4579 -0.4579,0.4579l-2.7863,0c-0.2529,0 -0.4579,-0.205 -0.4579,-0.4579l0,-3.3508c0,-0.2529 0.205,-0.4579 0.4579,-0.4579l2.7863,0c0.2529,0 0.4579,0.205 0.4579,0.4579l0,3.3508zm4.9395,0c0,0.2529 -0.205,0.4579 -0.4579,0.4579l-2.7864,0c-0.2529,0 -0.4579,-0.205 -0.4579,-0.4579l0,-3.3508c0,-0.2529 0.205,-0.4579 0.4579,-0.4579l2.7864,0c0.2529,0 0.4579,0.205 0.4579,0.4579l0,3.3508zm-14.81935,-0.1016c0,0.2529 -0.20501,0.458 -0.45791,0.458l-2.78633,0c-0.2529,0 -0.45791,-0.2051 -0.45791,-0.458l0,-3.3507c0,-0.2529 0.20501,-0.4579 0.45791,-0.4579l2.78633,0c0.2529,0 0.45791,0.205 0.45791,0.4579l0,3.3507zm-4.69434,-0.1093c0,0.2529 -0.20501,0.4579 -0.4579,0.4579l-2.78634,0c-0.25289,0 -0.4579,-0.205 -0.4579,-0.4579l0,-3.3508c0,-0.2529 0.20501,-0.4579 0.4579,-0.4579l2.78634,0c0.25289,0 0.4579,0.205 0.4579,0.4579l0,3.3508zm23.50389,-6.8322c0.2529,0.0001 0.458,0.2052 0.458,0.458l0,3.3506c0,0.2529 -0.2051,0.458 -0.458,0.458l-3.4316,0c-0.2527,-0.0002 -0.457,-0.2052 -0.4571,-0.458l0,-3.3506c0,-0.2527 0.2044,-0.4578 0.4571,-0.458l3.4316,0zm4.336,-1.4843c0.2529,0 0.458,0.2051 0.458,0.458l0,2.7715c0,0.2529 -0.2051,0.458 -0.458,0.458l-2.7862,0c-0.2529,0 -0.458,-0.2051 -0.458,-0.458l0,-2.7715c0,-0.2529 0.2051,-0.458 0.458,-0.458l2.7862,0zm-18.2061,3.043c0,0.2529 -0.205,0.4579 -0.4579,0.4579l-2.7863,0c-0.2529,0 -0.4579,-0.205 -0.4579,-0.4579l0,-3.3508c0,-0.2529 0.205,-0.4579 0.4579,-0.4579l2.7863,0c0.2529,0 0.4579,0.205 0.4579,0.4579l0,3.3508zm4.9404,0c0,0.2529 -0.205,0.4579 -0.4579,0.4579l-2.7863,0c-0.2529,0 -0.4579,-0.205 -0.4579,-0.4579l0,-3.3508c0,-0.2529 0.205,-0.4579 0.4579,-0.4579l2.7863,0c0.2529,0 0.4579,0.205 0.4579,0.4579l0,3.3508zm4.9395,0c0,0.2529 -0.205,0.4579 -0.4579,0.4579l-2.7864,0c-0.2529,0 -0.4579,-0.205 -0.4579,-0.4579l0,-3.3508c0,-0.2529 0.205,-0.4579 0.4579,-0.4579l2.7864,0c0.2529,0 0.4579,0.205 0.4579,0.4579l0,3.3508zm-14.81935,-0.125c0,0.2529 -0.20501,0.4579 -0.45791,0.4579l-2.78633,0c-0.2529,0 -0.45791,-0.205 -0.45791,-0.4579l0,-3.3508c0,-0.2529 0.20501,-0.4579 0.45791,-0.4579l2.78633,0c0.2529,0 0.45791,0.205 0.45791,0.4579l0,3.3508zm-4.69434,-0.1484c0,0.2529 -0.20501,0.4579 -0.4579,0.4579l-2.78634,0c-0.25289,0 -0.4579,-0.205 -0.4579,-0.4579l0,-3.3508c0,-0.2529 0.20501,-0.4579 0.4579,-0.4579l2.78634,0c0.25289,0 0.4579,0.205 0.4579,0.4579l0,3.3508zm23.50389,-6.77745c0.2529,0.00003 0.458,0.20513 0.458,0.45801l0,2.81054c0,0.2529 -0.2051,0.458 -0.458,0.458l-2.7861,0c-0.2529,0 -0.458,-0.2051 -0.458,-0.458l0,-2.81054c0,-0.2529 0.2051,-0.45801 0.458,-0.45801l2.7861,0zm4.336,-1.64063c0.2529,0 0.458,0.20512 0.458,0.45801l0,2.8584c0,0.25289 -0.2052,0.45797 -0.458,0.45797l-2.7998,0c-0.2529,0 -0.458,-0.20508 -0.4581,-0.45797l0,-2.8584c0,-0.25289 0.2052,-0.45801 0.4581,-0.45801l2.7998,0zm-18.2061,3.1837c0,0.25289 -0.205,0.45791 -0.4579,0.45791l-2.7863,0c-0.2529,0 -0.4579,-0.20502 -0.4579,-0.45791l0,-3.35079c0,-0.25289 0.205,-0.45791 0.4579,-0.45791l2.7863,0c0.2529,0 0.4579,0.20502 0.4579,0.45791l0,3.35079zm4.9404,0c0,0.25289 -0.205,0.45791 -0.4579,0.45791l-2.7863,0c-0.2529,0 -0.4579,-0.20502 -0.4579,-0.45791l0,-3.35079c0,-0.25289 0.205,-0.45791 0.4579,-0.45791l2.7863,0c0.2529,0 0.4579,0.20502 0.4579,0.45791l0,3.35079zm4.4815,-3.8087c0.2529,0 0.458,0.20512 0.458,0.45801l0,3.35059c0,0.25288 -0.2051,0.45801 -0.458,0.45801l-2.7862,0c-0.2528,-0.00008 -0.458,-0.20517 -0.458,-0.45801l0,-3.35059c0,-0.25284 0.2052,-0.45793 0.458,-0.45801l2.7862,0zm-14.81936,-0.10937c0.25287,0.00003 0.45801,0.20513 0.45801,0.45801l0,3.35058c-0.00001,0.25287 -0.20514,0.45798 -0.45801,0.45801l-2.78613,0c-0.25289,0 -0.458,-0.20512 -0.45801,-0.45801l0,-3.35058c0,-0.2529 0.20511,-0.45801 0.45801,-0.45801l2.78613,0zm-4.23633,3.61338c0,0.2529 -0.20501,0.45791 -0.4579,0.45791l-2.78634,0c-0.25289,0 -0.4579,-0.20501 -0.4579,-0.45791l0,-3.35078c0,-0.2529 0.20501,-0.45791 0.4579,-0.45791l2.78634,0c0.25289,0 0.4579,0.20501 0.4579,0.45791l0,3.35078zm23.79689,-7.09775c0.2529,0 0.458,0.20511 0.458,0.458l0,3.35059c0,0.25288 -0.2051,0.45801 -0.458,0.45801l-3.3252,0c-0.2528,-0.00008 -0.458,-0.20517 -0.458,-0.45801l0,-3.35059c0,-0.25284 0.2052,-0.45793 0.458,-0.458l3.3252,0zm-4.8945,-1.79688c0.2527,0.00021 0.458,0.20524 0.458,0.45801l0,3.35058c0,0.25276 -0.2053,0.4578 -0.458,0.45801l-3.3477,0c-0.2529,0 -0.458,-0.20512 -0.458,-0.45801l0,-3.35058c0,-0.2529 0.2051,-0.45801 0.458,-0.45801l3.3477,0zm-9.7266,-0.10937c0.2529,0 0.458,0.20511 0.458,0.458l0,3.35059c0,0.25288 -0.2051,0.45801 -0.458,0.45801l-3.2422,0c-0.2529,0 -0.458,-0.20513 -0.458,-0.45801l0,-3.35059c0,-0.25289 0.2051,-0.458 0.458,-0.458l3.2422,0zm4.9404,0c0.2529,0.00002 0.458,0.20512 0.458,0.458l0,3.35059c0,0.25287 -0.2051,0.45798 -0.458,0.45801l-3.2158,0c-0.2529,0 -0.458,-0.20513 -0.458,-0.45801l0,-3.35059c0,-0.25289 0.2051,-0.458 0.458,-0.458l3.2158,0zm-9.87986,-0.10938c0.25287,0.00003 0.45801,0.20513 0.45801,0.45801l0,3.35058c-0.00001,0.25287 -0.20514,0.45798 -0.45801,0.45801l-3.27051,0c-0.25271,-0.00021 -0.45702,-0.20525 -0.45703,-0.45801l0,-3.35058c0,-0.25277 0.20432,-0.4578 0.45703,-0.45801l3.27051,0zm-3.92773,3.55772c0,0.25289 -0.20501,0.45791 -0.45791,0.45791l-3.3253,0c-0.12566,0 -0.22753,-0.10188 -0.22753,-0.22754l0,0c0.00008,-2.02296 1.64016,-3.66286 3.66308,-3.66309l0,0c0.19201,0 0.34766,0.15565 0.34766,0.34766l0,3.08506z"/>
    <path d="m3.93251,31.95535c-1.99053,0.00673 -3.66886,-1.66032 -3.67555,-3.65085l-0.08249,-24.53733c-0.00669,-1.99053 1.6604,-3.6689 3.65092,-3.67563l24.77863,-0.0838c1.99053,-0.00673 3.66886,1.66032 3.67555,3.65085l0.08249,24.53733c0.00669,1.99053 -1.6604,3.6689 -3.65092,3.67563l-24.77863,0.0838z" opacity="undefined" fill="url(#svg_6)"/>
    <ellipse fill="white" transform="matrix(-0.0033619 -0.999994 0.999994 -0.00338204 7.07788 26.2891)" ry="10.1008" rx="10.131" cy="9.36006" cx="10.13351"/>
    <circle fill="#0C4D94" r="1.5" cy="15.8359" cx="11.79706"/>
    <path fill="#0C4D94" d="m22.29706,15.8359c0,0.8285 -0.6715,1.5 -1.5,1.5c-0.8284,0 -1.5,-0.6715 -1.5,-1.5c0,-0.8284 0.6716,-1.5 1.5,-1.5c0.8285,0 1.5,0.6716 1.5,1.5z"/>
</svg>